<svg width="243" height="34" viewBox="0 0 243 34" fill="none" xmlns="http://www.w3.org/2000/svg">
<g clip-path="url(#clip0)">
<path d="M18.8 6.888C15.4933 6.888 13.84 10.0773 13.84 16.456V18.984C13.84 22.0133 14.2773 24.392 15.152 26.12C16.0267 27.8267 17.3173 28.68 19.024 28.68C21.3707 28.68 23.5253 26.3973 25.488 21.832H26.064L25.84 28.968H25.488C25.36 28.7333 25.2427 28.5733 25.136 28.488C25.0293 28.3813 24.8693 28.328 24.656 28.328C24.464 28.328 23.696 28.4987 22.352 28.84C21.008 29.16 19.6427 29.32 18.256 29.32C14.7787 29.32 12.08 28.3813 10.16 26.504C8.26133 24.6267 7.312 21.8107 7.312 18.056C7.312 14.28 8.304 11.368 10.288 9.32C12.2933 7.272 14.9813 6.248 18.352 6.248C19.6533 6.248 20.9227 6.41867 22.16 6.76C23.4187 7.08 24.1547 7.24 24.368 7.24C24.5813 7.24 24.7413 7.19733 24.848 7.112C24.9547 7.00533 25.072 6.83467 25.2 6.6H25.552L25.808 13.544H25.232C24.272 11.3893 23.28 9.74667 22.256 8.616C21.2533 7.464 20.1013 6.888 18.8 6.888ZM41.2928 28.392L38.9568 21.48H32.6208L30.1568 28.392H32.5568V29H27.6608V28.392H29.1648L37.3248 6.408H39.9488L48.0128 28.392H49.4848V29H39.0208V28.392H41.2928ZM35.9167 12.392L32.9088 20.776H38.7008L35.9167 12.392ZM67.2235 6.6H75.7675V7.208H74.0075V28.392H75.7675V29H66.0075V28.392H67.7675V8.392H67.6395L62.8395 29H58.8395L53.2075 8.296H53.0795V28.392H54.8395V29H50.4875V28.392H52.2475V7.208H50.4875V6.6H59.1275L63.3835 23.08L67.2235 6.6ZM77.2345 6.6H93.8745L94.1945 12.936H93.6185C92.7225 10.7813 91.7838 9.30933 90.8025 8.52C89.8212 7.70933 88.3812 7.304 86.4825 7.304H85.3625V17.192H86.4505C87.4532 17.192 88.2958 16.8187 88.9785 16.072C89.6612 15.304 90.1412 14.28 90.4185 13H90.8985V22.472H90.3545C89.9705 20.872 89.4478 19.7307 88.7865 19.048C88.1465 18.3653 87.2612 18.024 86.1305 18.024H85.3625V28.296H86.5785C88.5412 28.296 90.2052 27.7093 91.5705 26.536C92.9572 25.3627 93.9065 23.8587 94.4185 22.024H95.0585L94.8025 29H77.2345V28.296H79.1225V7.304H77.2345V6.6ZM107.027 17.672H105.331V28.392H107.411V29H97.0113V28.392H99.0913V7.208H97.0113V6.6H106.675C109.449 6.6 111.411 6.74933 112.563 7.048C113.737 7.32533 114.558 7.66667 115.027 8.072C116.051 8.904 116.563 10.2267 116.563 12.04C116.563 13.8533 116.115 15.1547 115.219 15.944C114.323 16.712 112.958 17.1707 111.123 17.32V17.416C112.851 17.6507 114.057 18.1627 114.739 18.952C115.422 19.7413 115.763 21.064 115.763 22.92V24.616C115.763 25.7253 115.817 26.472 115.923 26.856C116.051 27.24 116.307 27.432 116.691 27.432C117.075 27.432 117.374 27.2613 117.587 26.92C117.822 26.5573 118.035 25.8107 118.227 24.68L118.771 24.744C118.537 26.5573 118.121 27.7733 117.523 28.392C116.947 29.0107 115.785 29.32 114.035 29.32C112.286 29.32 111.038 28.9147 110.291 28.104C109.566 27.272 109.203 25.7253 109.203 23.464V21.128C109.203 19.9333 109.043 19.0587 108.723 18.504C108.425 17.9493 107.859 17.672 107.027 17.672ZM105.331 7.208V17.064H106.355C107.571 17.064 108.467 16.6907 109.043 15.944C109.641 15.1973 109.939 13.9813 109.939 12.296V11.368C109.939 9.68267 109.651 8.57333 109.075 8.04C108.521 7.48533 107.625 7.208 106.387 7.208H105.331ZM132.949 28.392L130.613 21.48H124.277L121.813 28.392H124.213V29H119.317V28.392H120.821L128.981 6.408H131.605L139.669 28.392H141.141V29H130.677V28.392H132.949ZM127.573 12.392L124.565 20.776H130.357L127.573 12.392Z" fill="#D8262F"/>
<path d="M141.824 6.6H151.232C154.453 6.6 156.853 7.06933 158.432 8.008C160.01 8.92533 160.8 10.5787 160.8 12.968C160.8 15.6133 159.84 17.4373 157.92 18.44C156.128 19.3573 153.621 19.816 150.4 19.816H150.144V28.392H154.144V29H141.824V28.392H143.904V7.208H141.824V6.6ZM150.144 7.208V19.208H150.816C152.096 19.208 152.981 18.7707 153.472 17.896C153.962 17.0213 154.208 15.6027 154.208 13.64V12.104C154.208 10.2907 153.973 9.02133 153.504 8.296C153.056 7.57067 152.224 7.208 151.008 7.208H150.144ZM171.918 28.392L169.582 21.48H163.246L160.782 28.392H163.182V29H158.286V28.392H159.79L167.95 6.408H170.574L178.638 28.392H180.11V29H169.646V28.392H171.918ZM166.542 12.392L163.534 20.776H169.326L166.542 12.392ZM190.4 28.648C191.467 28.648 192.405 28.36 193.216 27.784C194.048 27.208 194.464 26.344 194.464 25.192C194.464 24.0187 194.016 23.1227 193.12 22.504C192.245 21.8853 190.987 21.352 189.344 20.904C187.723 20.4347 186.539 20.0293 185.792 19.688C185.067 19.3467 184.373 18.8987 183.712 18.344C182.389 17.2347 181.728 15.5173 181.728 13.192C181.728 11.2933 182.4 9.66133 183.744 8.296C185.109 6.93067 186.965 6.248 189.312 6.248C190.443 6.248 191.616 6.41867 192.832 6.76C194.069 7.08 194.837 7.24 195.136 7.24C195.435 7.24 195.701 7.02667 195.936 6.6H196.288L196.512 13.064H196C194.976 11.208 193.899 9.72533 192.768 8.616C191.659 7.48533 190.443 6.92 189.12 6.92C187.819 6.92 186.805 7.22933 186.08 7.848C185.355 8.44533 184.992 9.256 184.992 10.28C184.992 11.2827 185.419 12.0613 186.272 12.616C187.147 13.1493 188.213 13.5867 189.472 13.928C190.731 14.2693 191.552 14.504 191.936 14.632C192.341 14.76 192.832 14.9413 193.408 15.176C194.005 15.3893 194.485 15.624 194.848 15.88C195.232 16.1147 195.627 16.424 196.032 16.808C196.459 17.1707 196.789 17.576 197.024 18.024C197.6 19.048 197.888 20.264 197.888 21.672C197.888 23.976 197.163 25.832 195.712 27.24C194.283 28.6267 192.395 29.32 190.048 29.32C188.832 29.32 187.435 29.16 185.856 28.84C184.299 28.52 183.435 28.36 183.264 28.36C182.965 28.36 182.677 28.68 182.4 29.32H181.952L181.632 21.704H182.176C183.115 23.56 184.309 25.1813 185.76 26.568C187.232 27.9547 188.779 28.648 190.4 28.648ZM211.73 28.392L209.394 21.48H203.058L200.594 28.392H202.994V29H198.098V28.392H199.602L207.762 6.408H210.386L218.45 28.392H219.922V29H209.458V28.392H211.73ZM206.354 12.392L203.346 20.776H209.138L206.354 12.392ZM220.797 6.6H232.317V7.304H228.925V28.296H230.077C231.89 28.296 233.33 27.7413 234.397 26.632C235.485 25.5227 236.584 23.816 237.693 21.512H238.365L237.757 29H220.797V28.296H222.685V7.304H220.797V6.6Z" fill="#5F6062"/>
</g>
<defs>
<clipPath id="clip0">
<rect width="243" height="34" fill="white"/>
</clipPath>
</defs>
</svg>
