<svg width="122" height="23" viewBox="0 0 122 23" fill="none" xmlns="http://www.w3.org/2000/svg">
<path d="M8.4 5.944C6.74667 5.944 5.92 7.53867 5.92 10.728V11.992C5.92 13.5067 6.13867 14.696 6.576 15.56C7.01333 16.4133 7.65867 16.84 8.512 16.84C9.68533 16.84 10.7627 15.6987 11.744 13.416H12.032L11.92 16.984H11.744C11.68 16.8667 11.6213 16.7867 11.568 16.744C11.5147 16.6907 11.4347 16.664 11.328 16.664C11.232 16.664 10.848 16.7493 10.176 16.92C9.504 17.08 8.82133 17.16 8.128 17.16C6.38933 17.16 5.04 16.6907 4.08 15.752C3.13067 14.8133 2.656 13.4053 2.656 11.528C2.656 9.64 3.152 8.184 4.144 7.16C5.14667 6.136 6.49067 5.624 8.176 5.624C8.82667 5.624 9.46133 5.70933 10.08 5.88C10.7093 6.04 11.0773 6.12 11.184 6.12C11.2907 6.12 11.3707 6.09867 11.424 6.056C11.4773 6.00267 11.536 5.91733 11.6 5.8H11.776L11.904 9.272H11.616C11.136 8.19467 10.64 7.37333 10.128 6.808C9.62667 6.232 9.05067 5.944 8.4 5.944ZM19.6464 16.696L18.4784 13.24H15.3104L14.0784 16.696H15.2784V17H12.8304V16.696H13.5824L17.6624 5.704H18.9744L23.0064 16.696H23.7424V17H18.5104V16.696H19.6464ZM16.9584 8.696L15.4544 12.888H18.3504L16.9584 8.696ZM32.6118 5.8H36.8838V6.104H36.0038V16.696H36.8838V17H32.0038V16.696H32.8837V6.696H32.8198L30.4198 17H28.4198L25.6038 6.648H25.5398V16.696H26.4198V17H24.2438V16.696H25.1238V6.104H24.2438V5.8H28.5638L30.6918 14.04L32.6118 5.8ZM37.6173 5.8H45.9373L46.0972 8.968H45.8093C45.3613 7.89067 44.8919 7.15467 44.4013 6.76C43.9106 6.35467 43.1906 6.152 42.2413 6.152H41.6813V11.096H42.2253C42.7266 11.096 43.1479 10.9093 43.4893 10.536C43.8306 10.152 44.0706 9.64 44.2093 9H44.4493V13.736H44.1773C43.9853 12.936 43.7239 12.3653 43.3933 12.024C43.0733 11.6827 42.6306 11.512 42.0653 11.512H41.6813V16.648H42.2893C43.2706 16.648 44.1026 16.3547 44.7853 15.768C45.4786 15.1813 45.9533 14.4293 46.2093 13.512H46.5293L46.4013 17H37.6173V16.648H38.5613V6.152H37.6173V5.8ZM52.5136 11.336H51.6656V16.696H52.7056V17H47.5056V16.696H48.5456V6.104H47.5056V5.8H52.3376C53.7243 5.8 54.7056 5.87467 55.2816 6.024C55.8683 6.16267 56.279 6.33333 56.5136 6.536C57.0256 6.952 57.2816 7.61333 57.2816 8.52C57.2816 9.42667 57.0576 10.0773 56.6096 10.472C56.1616 10.856 55.479 11.0853 54.5616 11.16V11.208C55.4256 11.3253 56.0283 11.5813 56.3696 11.976C56.711 12.3707 56.8816 13.032 56.8816 13.96V14.808C56.8816 15.3627 56.9083 15.736 56.9616 15.928C57.0256 16.12 57.1536 16.216 57.3456 16.216C57.5376 16.216 57.687 16.1307 57.7936 15.96C57.911 15.7787 58.0176 15.4053 58.1136 14.84L58.3856 14.872C58.2683 15.7787 58.0603 16.3867 57.7616 16.696C57.4736 17.0053 56.8923 17.16 56.0176 17.16C55.143 17.16 54.519 16.9573 54.1456 16.552C53.783 16.136 53.6016 15.3627 53.6016 14.232V13.064C53.6016 12.4667 53.5216 12.0293 53.3616 11.752C53.2123 11.4747 52.9296 11.336 52.5136 11.336ZM51.6656 6.104V11.032H52.1776C52.7856 11.032 53.2336 10.8453 53.5216 10.472C53.8203 10.0987 53.9696 9.49067 53.9696 8.648V8.184C53.9696 7.34133 53.8256 6.78667 53.5376 6.52C53.2603 6.24267 52.8123 6.104 52.1936 6.104H51.6656ZM65.4745 16.696L64.3065 13.24H61.1385L59.9065 16.696H61.1065V17H58.6585V16.696H59.4105L63.4905 5.704H64.8025L68.8345 16.696H69.5705V17H64.3385V16.696H65.4745ZM62.7865 8.696L61.2825 12.888H64.1785L62.7865 8.696Z" fill="#D8262F"/>
<path d="M69.9119 5.8H74.6159C76.2265 5.8 77.4265 6.03467 78.2159 6.504C79.0052 6.96267 79.3999 7.78933 79.3999 8.984C79.3999 10.3067 78.9199 11.2187 77.9599 11.72C77.0639 12.1787 75.8105 12.408 74.1999 12.408H74.0719V16.696H76.0719V17H69.9119V16.696H70.9519V6.104H69.9119V5.8ZM74.0719 6.104V12.104H74.4079C75.0479 12.104 75.4905 11.8853 75.7359 11.448C75.9812 11.0107 76.1039 10.3013 76.1039 9.32V8.552C76.1039 7.64533 75.9865 7.01067 75.7519 6.648C75.5279 6.28533 75.1119 6.104 74.5039 6.104H74.0719ZM84.9589 16.696L83.7909 13.24H80.6229L79.3909 16.696H80.5909V17H78.1429V16.696H78.8949L82.9749 5.704H84.2869L88.3189 16.696H89.0549V17H83.8229V16.696H84.9589ZM82.2709 8.696L80.7669 12.888H83.6629L82.2709 8.696ZM94.2 16.824C94.7333 16.824 95.2027 16.68 95.608 16.392C96.024 16.104 96.232 15.672 96.232 15.096C96.232 14.5093 96.008 14.0613 95.56 13.752C95.1227 13.4427 94.4933 13.176 93.672 12.952C92.8613 12.7173 92.2693 12.5147 91.896 12.344C91.5333 12.1733 91.1867 11.9493 90.856 11.672C90.1947 11.1173 89.864 10.2587 89.864 9.096C89.864 8.14667 90.2 7.33067 90.872 6.648C91.5547 5.96533 92.4827 5.624 93.656 5.624C94.2213 5.624 94.808 5.70933 95.416 5.88C96.0347 6.04 96.4187 6.12 96.568 6.12C96.7173 6.12 96.8507 6.01333 96.968 5.8H97.144L97.256 9.032H97C96.488 8.104 95.9493 7.36267 95.384 6.808C94.8293 6.24267 94.2213 5.96 93.56 5.96C92.9093 5.96 92.4027 6.11467 92.04 6.424C91.6773 6.72267 91.496 7.128 91.496 7.64C91.496 8.14133 91.7093 8.53067 92.136 8.808C92.5733 9.07467 93.1067 9.29333 93.736 9.464C94.3653 9.63467 94.776 9.752 94.968 9.816C95.1707 9.88 95.416 9.97067 95.704 10.088C96.0027 10.1947 96.2427 10.312 96.424 10.44C96.616 10.5573 96.8133 10.712 97.016 10.904C97.2293 11.0853 97.3947 11.288 97.512 11.512C97.8 12.024 97.944 12.632 97.944 13.336C97.944 14.488 97.5813 15.416 96.856 16.12C96.1413 16.8133 95.1973 17.16 94.024 17.16C93.416 17.16 92.7173 17.08 91.928 16.92C91.1493 16.76 90.7173 16.68 90.632 16.68C90.4827 16.68 90.3387 16.84 90.2 17.16H89.976L89.816 13.352H90.088C90.5573 14.28 91.1547 15.0907 91.88 15.784C92.616 16.4773 93.3893 16.824 94.2 16.824ZM104.865 16.696L103.697 13.24H100.529L99.2971 16.696H100.497V17H98.0491V16.696H98.8011L102.881 5.704H104.193L108.225 16.696H108.961V17H103.729V16.696H104.865ZM102.177 8.696L100.673 12.888H103.569L102.177 8.696ZM109.399 5.8H115.159V6.152H113.463V16.648H114.039C114.945 16.648 115.665 16.3707 116.199 15.816C116.743 15.2613 117.292 14.408 117.847 13.256H118.183L117.878 17H109.399V16.648H110.343V6.152H109.399V5.8Z" fill="#5F6062"/>
</svg>
